# xmcd
#
# Track frame offsets:
#	150
#	9366
#	28646
#	39939
#	64640
#	76325
#	93922
#	115104
#	122694
#	141846
#	162345
#	184518
#	207286
#	220147
#	252188
#	265844
#	280178
#	293018
#	307879
#
# Disc length: 4316 seconds
#
# Revision: 0
# Processed by: cddbd v1.5.1PL2 Copyright (c) Steve Scherf et al.
# Submitted via: audiograbber 1.83.01
#
DISCID=fa10da13
DTITLE=Various Artist - Celebration of Life Vol 1
DYEAR=2006
DGENRE=Country
TTITLE0=3 Fox Drive - The Star Spangled Banner
TTITLE1=3 Fox Drive - Some Old Side Road
TTITLE2=Lonesome River Band - Raleigh And Spencer
TTITLE3=Seldom Scene - Wait A Minute
TTITLE4=Rhonda Vincent and The Rage - Jolene
TTITLE5=Various Artist - Tillery Cove
TTITLE6=Cherryholmes - He Goes To Church
TTITLE7=J.D. Crowe and The New South - The Leaves That Are Green
TTITLE8=Blue Ridge - Side By Side
TTITLE9=III Tyme Out - Milk Cow Blues
TTITLE10=James King Band - Bed By The Window
TTITLE11=Larry Cordle and Friends - You Don't Know My Mind
TTITLE12=Various Artist - A Brand New Heartache
TTITLE13=Bryan Sutton and Friends - Summertime
TTITLE14=Marty Raybon and Full Circle - Church On Cumberland Road
TTITLE15=Various Artist - Your Love Is Like A Flower
TTITLE16=Various Artist - Bf05
TTITLE17=Ronnie Bowman and Committee - Healing Kind
TTITLE18=Larry Stephenson Band - I'm In Love All Over
EXTD=
EXTT0=
EXTT1=
EXTT2=
EXTT3=
EXTT4=
EXTT5=
EXTT6=
EXTT7=
EXTT8=
EXTT9=
EXTT10=
EXTT11=
EXTT12=
EXTT13=
EXTT14=
EXTT15=
EXTT16=
EXTT17=
EXTT18=
PLAYORDER=
